HIERARCHY
ROOT Hips
{
	OFFSET 0.00000 0.00000 0.00000
	CHANNELS 6 Xposition Yposition Zposition Zrotation Yrotation Xrotation 
	JOINT LHipJoint
	{
		OFFSET 0 0 0
		CHANNELS 3 Zrotation Yrotation Xrotation
		JOINT LeftHip
		{
			OFFSET 1.84395 -1.68683 0.74144
			CHANNELS 3 Zrotation Yrotation Xrotation
			JOINT LeftKnee
			{
				OFFSET 2.27037 -6.23779 0.00000
				CHANNELS 3 Zrotation Yrotation Xrotation
				JOINT LeftAnkle
				{
					OFFSET 2.56918 -7.05877 0.00000
					CHANNELS 3 Zrotation Yrotation Xrotation
					JOINT LeftToe
					{
						OFFSET 0.22276 -0.61202 1.71784
						CHANNELS 3 Zrotation Yrotation Xrotation
						End Site
						{
							OFFSET 0.00000 -0.00000 0.91613
						}
					}
				}
			}
		}
	}
	JOINT RHipJoint
	{
		OFFSET 0 0 0
		CHANNELS 3 Zrotation Yrotation Xrotation
		JOINT RightHip
		{
			OFFSET -1.76833 -1.68684 0.74144
			CHANNELS 3 Zrotation Yrotation Xrotation
			JOINT RightKnee
			{
				OFFSET -2.49360 -6.85110 0.00000
				CHANNELS 3 Zrotation Yrotation Xrotation
				JOINT RightAnkle
				{
					OFFSET -2.55538 -7.02085 0.00000
					CHANNELS 3 Zrotation Yrotation Xrotation
					JOINT RightToe
					{
						OFFSET -0.21516 -0.59115 1.68050
						CHANNELS 3 Zrotation Yrotation Xrotation
						End Site
						{
							OFFSET -0.00000 -0.00000 0.89604
						}
					}
				}
			}
		}
	}
	JOINT lowerback
	{
		OFFSET 0 0 0
		CHANNELS 3 Zrotation Yrotation Xrotation
		JOINT Chest
		{
			OFFSET 0.06382 1.72312 -0.19613
			CHANNELS 3 Zrotation Yrotation Xrotation
			JOINT Chest2
			{
				OFFSET -0.00055 1.73507 0.23859
				CHANNELS 3 Zrotation Yrotation Xrotation
				JOINT lowerneck
				{
					OFFSET 0 0 0
					CHANNELS 3 Zrotation Yrotation Xrotation
					JOINT Neck
					{
						OFFSET 0.03638 1.65562 0.09633
						CHANNELS 3 Zrotation Yrotation Xrotation
						JOINT Head
						{
							OFFSET 0.06388 1.62807 -0.32386
							CHANNELS 3 Zrotation Yrotation Xrotation
							End Site
							{
								OFFSET 0.00995 1.67644 -0.12021
							}
						}
					}
				}
				JOINT LeftCollar
				{
					OFFSET 0 0 0
					CHANNELS 3 Zrotation Yrotation Xrotation
					JOINT LeftShoulder
					{
						OFFSET 3.09648 1.42991 0.28122
CHANNELS 3 Zrotation Xrotation Yrotation
						JOINT LeftElbow
						{
OFFSET 0 -5.118780 -0.000000
CHANNELS 3 Zrotation Xrotation Yrotation
							JOINT LeftWrist
							{
OFFSET 0 -3.599710 0.000000
CHANNELS 3 Zrotation Xrotation Yrotation
								JOINT lhand
								{
									OFFSET 0 0 0
CHANNELS 3 Zrotation Xrotation Yrotation
									JOINT LFingers
									{
OFFSET 0 -0.628770 0.000000
CHANNELS 3 Zrotation Xrotation Yrotation
										End Site
										{
OFFSET 0 -0.506930 0.000000
										}
									}
								}
								JOINT LThumb
								{
OFFSET 0 0.000000 0.000000
CHANNELS 3 Zrotation Xrotation Yrotation
									End Site
									{
OFFSET 0 -0.514670 0.514670
									}
								}
							}
						}
					}
				}
				JOINT RightCollar
				{
					OFFSET 0 0 0
					CHANNELS 3 Zrotation Yrotation Xrotation
					JOINT RightShoulder
					{
						OFFSET -3.33565 1.14597 0.05047
CHANNELS 3 Zrotation Xrotation Yrotation
						JOINT RightElbow
						{
OFFSET 0 -5.490200 0.000000
CHANNELS 3 Zrotation Xrotation Yrotation
							JOINT RightWrist
							{
OFFSET 0 -3.206590 -0.000000
CHANNELS 3 Zrotation Xrotation Yrotation
								JOINT rhand
								{
									OFFSET 0 0 0
CHANNELS 3 Zrotation Xrotation Yrotation
									JOINT RFingers
									{
OFFSET 0 -0.691880 0.000000
CHANNELS 3 Zrotation Xrotation Yrotation
										End Site
										{
OFFSET 0 -0.557810 0.000000
										}
									}
								}
								JOINT RThumb
								{
OFFSET 0 0.000000 0.000000
CHANNELS 3 Zrotation Xrotation Yrotation
									End Site
									{
OFFSET 0 -0.566330 0.566330
									}
								}
							}
						}
					}
				}
			}
		}
	}
}
MOTION
Frames: 11
Frame Time: 0.008333333333333333
0.533246 17.475515 9.392601 -7.661496 16.392692 6.224693 0.000000 0.000000 0.000000 -15.687447 -40.092461 18.833340 0.072323 -1.734525 -4.772489 -3.898604 32.799237 -19.184173 0.387039 -3.995150 -11.063080 0.000000 0.000000 0.000000 30.483912 21.114718 10.884704 -0.001692 -0.264124 0.725817 1.328828 -29.911906 -35.130876 -1.153233 -6.818354 19.178255 6.986075 1.997548 -2.485136 1.650930 3.213293 -11.547640 -2.325157 1.060771 -10.717690 0.330149 1.799518 -7.489528 9.108232 -0.013330 33.281720 3.452716 1.302581 12.185369 0.000000 0.000000 0.000000 44.575424 -45.623076 -18.914773 160.401117 -30.156113 114.671655 0.418292 -54.075552 6.857994 0.000000 0.000000 0.000000 -7.125000 0.000000 0.000000 -19.109376 23.160445 -10.638752 0.000000 0.000000 0.000000 -0.499712 14.271188 -4.308430 -13.704990 -22.311423 -2.715141 6.140167 39.621267 31.417541 0.000000 0.000000 0.000000 7.125000 0.000000 0.000000 40.667869 56.476410 -12.921318
0.533377 17.475100 9.396762 -7.699103 16.151485 6.272335 0.000000 0.000000 0.000000 -15.745742 -40.181264 19.009552 0.073231 -1.745671 -4.803296 -3.986158 33.113993 -19.427558 0.385660 -3.988047 -11.042951 0.000000 0.000000 0.000000 30.479666 21.110091 10.778367 -0.001954 -0.284319 0.781263 1.358221 -29.838638 -34.830187 -1.102366 -6.671366 18.745277 6.989503 2.022203 -2.523017 1.683487 3.245743 -11.560249 -2.292422 1.078255 -10.708617 0.437106 1.786971 -7.267172 8.970075 0.006618 33.075459 3.366289 1.297895 12.053667 0.000000 0.000000 0.000000 44.231705 -45.712439 -19.236930 160.398666 -30.159042 114.670422 0.464692 -53.909205 6.824115 0.000000 0.000000 0.000000 -7.125000 0.000000 0.000000 -19.081509 23.192501 -10.606451 0.000000 0.000000 0.000000 -0.531779 14.384164 -4.163360 -13.740573 -22.362597 -2.728640 6.258530 39.397403 31.474576 0.000000 0.000000 0.000000 7.125000 0.000000 0.000000 40.828877 56.496075 -13.006104
0.536201 17.476023 9.402679 -7.777762 15.928439 6.256801 0.000000 0.000000 0.000000 -15.831090 -40.271631 19.299016 0.074693 -1.763006 -4.851224 -4.069159 33.417976 -19.730970 0.368042 -3.896684 -10.786286 0.000000 0.000000 0.000000 30.578750 21.201951 10.845071 -0.001777 -0.272409 0.748589 1.365358 -29.801137 -34.721407 -1.106149 -6.682362 18.777593 7.036346 1.992671 -2.510985 1.734913 3.210964 -11.548954 -2.261207 1.059395 -10.707953 0.524296 1.813018 -7.129819 8.952047 0.040117 32.965450 3.338649 1.315012 11.979044 0.000000 0.000000 0.000000 44.178671 -45.659022 -19.342010 160.378116 -30.184064 114.660077 0.573479 -53.780414 7.148873 0.000000 0.000000 0.000000 -7.125000 0.000000 0.000000 -18.960648 22.885512 -10.673852 0.000000 0.000000 0.000000 -0.524759 14.462596 -4.170020 -13.700498 -22.304914 -2.713401 6.309632 39.348163 31.635065 0.000000 0.000000 0.000000 7.125000 0.000000 0.000000 41.025709 56.609729 -13.204080
0.539210 17.475508 9.407802 -7.745188 15.701068 6.371304 0.000000 0.000000 0.000000 -15.810773 -40.198437 19.204566 0.073838 -1.752936 -4.823363 -4.071654 33.457902 -19.969402 0.347677 -3.788572 -10.482493 0.000000 0.000000 0.000000 30.498577 21.314104 10.776625 -0.001754 -0.270099 0.742143 1.355094 -29.705744 -34.612958 -1.101151 -6.667601 18.734276 6.985630 1.925599 -2.541774 1.752347 3.113608 -11.528137 -2.207374 1.018083 -10.675994 0.540966 1.881919 -7.350673 8.977961 0.109076 33.071383 3.363646 1.355217 12.065168 0.000000 0.000000 0.000000 44.389101 -45.668627 -19.068584 160.343322 -30.226438 114.642611 0.522834 -53.714258 7.314214 0.000000 0.000000 0.000000 -7.125000 0.000000 0.000000 -18.973562 22.729095 -10.754622 0.000000 0.000000 0.000000 -0.493306 14.463510 -4.326457 -13.647745 -22.228928 -2.693424 6.260469 39.637910 31.431246 0.000000 0.000000 0.000000 7.125000 0.000000 0.000000 40.790347 56.462076 -12.955270
0.544757 17.475238 9.413465 -7.611402 15.467659 6.507915 0.000000 0.000000 0.000000 -16.019741 -40.219438 19.250916 0.073131 -1.744416 -4.799887 -4.112834 33.619271 -20.207302 0.331633 -3.700573 -10.235858 0.000000 0.000000 0.000000 30.292226 21.394045 10.740747 -0.001469 -0.248141 0.681749 1.387715 -29.688964 -34.388056 -1.039457 -6.484147 18.195715 6.881387 1.930943 -2.601681 1.697693 3.104217 -11.516431 -2.205486 1.021397 -10.626147 0.690408 1.858749 -7.419830 8.896997 0.061850 33.079556 3.302248 1.342183 12.088677 0.000000 0.000000 0.000000 44.589324 -45.678669 -18.826846 160.366165 -30.198713 114.654082 0.045186 -53.968321 6.965293 0.000000 0.000000 0.000000 -7.125000 0.000000 0.000000 -19.355242 23.058430 -10.840887 0.000000 0.000000 0.000000 -0.343915 14.530495 -4.895325 -13.558052 -22.099381 -2.659579 6.406866 39.982088 31.352498 0.000000 0.000000 0.000000 7.125000 0.000000 0.000000 40.850337 56.370785 -12.883865
0.550281 17.476017 9.418373 -7.675870 15.215780 6.545871 0.000000 0.000000 0.000000 -16.207449 -40.486822 19.636313 0.074911 -1.765933 -4.859299 -4.246505 34.106813 -20.756928 0.295778 -3.497092 -9.666010 0.000000 0.000000 0.000000 30.317777 21.459894 10.715299 -0.001516 -0.249185 0.684722 1.390125 -29.590097 -34.196051 -1.040010 -6.485951 18.201179 6.983828 1.990586 -2.551753 1.655291 3.188884 -11.524625 -2.314125 1.049049 -10.652960 0.745585 1.780856 -7.297883 9.002646 -0.086697 32.926726 3.305129 1.287934 12.010338 0.000000 0.000000 0.000000 44.581689 -45.823464 -18.983115 160.338795 -30.231988 114.640332 -0.144393 -54.020534 6.921338 0.000000 0.000000 0.000000 -7.125000 0.000000 0.000000 -19.493834 23.099480 -10.908570 0.000000 0.000000 0.000000 -0.154254 14.730822 -5.598441 -13.455462 -21.950864 -2.621080 6.586315 40.297434 31.386881 0.000000 0.000000 0.000000 7.125000 0.000000 0.000000 41.045555 56.360370 -12.950550
0.556513 17.478593 9.421992 -7.758261 14.918243 6.652523 0.000000 0.000000 0.000000 -16.193030 -40.573101 19.757255 0.076795 -1.788047 -4.920154 -4.318492 34.394364 -21.249110 0.258162 -3.268756 -9.028019 0.000000 0.000000 0.000000 30.300523 21.506277 10.522543 -0.001801 -0.273691 0.751950 1.394564 -29.438868 -33.896163 -1.009339 -6.392609 17.927842 7.008797 2.012966 -2.557122 1.708248 3.222685 -11.526122 -2.272710 1.066026 -10.651056 0.883640 1.765796 -7.196051 8.902908 -0.099513 32.824101 3.233088 1.280795 11.949851 0.000000 0.000000 0.000000 44.561976 -45.884815 -19.128268 160.310480 -30.266525 114.625990 0.053778 -53.781294 6.754576 0.000000 0.000000 0.000000 -7.125000 0.000000 0.000000 -19.379111 23.257235 -10.761198 0.000000 0.000000 0.000000 -0.089494 14.808067 -6.442184 -13.283820 -21.701738 -2.557334 6.475731 41.019436 31.376542 0.000000 0.000000 0.000000 7.125000 0.000000 0.000000 40.935474 56.375249 -12.922336
0.577939 17.463236 9.402983 -7.776441 14.404425 7.339078 0.000000 0.000000 0.000000 -15.883346 -41.048132 19.009979 0.068333 -1.685994 -4.638559 -4.457645 34.918296 -22.019806 0.212671 -2.968449 -8.190908 0.000000 0.000000 0.000000 29.537361 21.154939 8.961703 -0.004466 -0.429600 1.180403 1.355006 -28.564644 -32.553791 -0.885163 -5.996159 16.773528 7.317353 2.156335 -2.793171 1.622075 3.411483 -11.740236 -2.538168 1.118631 -10.728161 0.906189 1.762382 -7.191849 8.962910 -0.128941 32.760181 3.245082 1.273968 11.925080 0.000000 0.000000 0.000000 44.523939 -45.913745 -19.285237 160.290428 -30.290868 114.615914 0.301496 -53.681872 6.943475 0.000000 0.000000 0.000000 -7.125000 0.000000 0.000000 -19.179146 23.079489 -10.720439 0.000000 0.000000 0.000000 0.006921 14.894729 -7.302415 -13.090574 -21.419669 -2.486236 6.509141 41.811009 31.395908 0.000000 0.000000 0.000000 7.125000 0.000000 0.000000 40.983806 56.383342 -12.949981
0.586039 17.459722 9.404558 -7.778479 14.136407 7.517119 0.000000 0.000000 0.000000 -15.983769 -41.306147 19.095895 0.067278 -1.673581 -4.604409 -4.573814 35.324994 -22.503775 0.191133 -2.815338 -7.765119 0.000000 0.000000 0.000000 29.384852 21.219150 8.707295 -0.004700 -0.442255 1.215144 1.383359 -28.477744 -32.207474 -0.841174 -5.850114 16.350133 7.288328 2.139132 -2.815532 1.638285 3.387293 -11.770692 -2.502913 1.108516 -10.754551 0.825062 1.744997 -7.202720 9.115926 -0.189509 32.715186 3.308592 1.252163 11.911607 0.000000 0.000000 0.000000 44.381356 -45.950917 -19.416733 160.250798 -30.339005 114.595910 0.239176 -53.606415 7.080645 0.000000 0.000000 0.000000 -7.125000 0.000000 0.000000 -19.203616 22.949917 -10.796868 0.000000 0.000000 0.000000 0.071982 15.139844 -7.861996 -13.000060 -21.287265 -2.453311 6.502552 42.323730 31.356477 0.000000 0.000000 0.000000 7.125000 0.000000 0.000000 40.941199 56.354134 -12.902543
0.595175 17.460903 9.409223 -7.809708 13.854481 7.622565 0.000000 0.000000 0.000000 -16.180968 -41.555272 19.374986 0.067338 -1.674277 -4.606365 -4.698607 35.776544 -23.154740 0.159079 -2.567497 -7.077002 0.000000 0.000000 0.000000 29.319880 21.295953 8.604594 -0.004708 -0.442945 1.217071 1.378327 -28.343621 -31.991439 -0.820597 -5.779961 16.147352 7.295159 2.098397 -2.779478 1.679387 3.337939 -11.772599 -2.461231 1.083990 -10.785733 0.707490 1.738754 -7.164072 9.188118 -0.195306 32.587928 3.348279 1.236937 11.850072 0.000000 0.000000 0.000000 44.300782 -46.013303 -19.522647 160.192834 -30.409319 114.566617 0.179567 -53.615327 7.222850 0.000000 0.000000 0.000000 -7.125000 0.000000 0.000000 -19.225565 22.815600 -10.874035 0.000000 0.000000 0.000000 0.031998 15.336589 -8.225726 -12.898571 -21.138351 -2.416591 6.509936 42.688360 31.313447 0.000000 0.000000 0.000000 7.125000 0.000000 0.000000 40.908012 56.319234 -12.852781
0.605008 17.461319 9.413852 -7.814705 13.489773 7.681850 0.000000 0.000000 0.000000 -16.569512 -41.865015 19.890192 0.068094 -1.683411 -4.631575 -4.842729 36.330866 -24.135590 0.118342 -2.216797 -6.105208 0.000000 0.000000 0.000000 29.228570 21.350675 8.522966 -0.005116 -0.461699 1.268713 1.359495 -28.101033 -31.666294 -0.782343 -5.646811 15.763028 7.196611 2.032520 -2.723812 1.743035 3.251512 -11.740764 -2.335381 1.053655 -10.796512 0.622664 1.723784 -7.203629 9.267549 -0.229167 32.475695 3.384039 1.214942 11.813559 0.000000 0.000000 0.000000 44.272106 -46.079722 -19.477010 160.160237 -30.448800 114.550102 0.212808 -53.824431 7.139149 0.000000 0.000000 0.000000 -7.125000 0.000000 0.000000 -19.213942 22.894567 -10.829467 0.000000 0.000000 0.000000 -0.069214 15.419153 -8.566960 -12.779244 -20.962916 -2.373757 6.603298 43.083331 31.322510 0.000000 0.000000 0.000000 7.125000 0.000000 0.000000 41.001176 56.307012 -12.876811
